<svg height="512pt" viewBox="-16 0 512 512" width="512pt" xmlns="http://www.w3.org/2000/svg"><path d="m120 436v30c0 24.898438-20.097656 46-45 46s-45-21.101562-45-46v-30c0-8.402344 6.597656-15 15-15h60c8.402344 0 15 6.597656 15 15zm0 0" fill="#4a696f"/><path d="m420 436v30c0 24.898438-20.097656 46-45 46s-45-21.101562-45-46v-30c0-8.402344 6.597656-15 15-15h60c8.402344 0 15 6.597656 15 15zm0 0" fill="#384949"/><path d="m364.5 187.300781c-4.199219-21-22.800781-36.300781-44.101562-36.300781h-190.796876c-21.300781 0-39.902343 15.300781-44.101562 36.300781l-25.199219 125.699219c-.902343 4.5.300781 9 3 12.601562 3 3.296876 7.199219 5.398438 11.699219 5.398438h300c4.5 0 8.699219-2.101562 11.699219-5.398438 2.699219-3.601562 3.902343-8.101562 3-12.601562zm0 0" fill="#e63950"/><path d="m389.699219 313c.902343 4.5-.300781 9-3 12.601562-3 3.296876-7.199219 5.398438-11.699219 5.398438h-150v-180h95.398438c21.300781 0 39.902343 15.300781 44.101562 36.300781zm0 0" fill="#cc2e43"/><path d="m335.097656 193c-1.5-6.898438-7.5-12-14.699218-12h-190.796876c-7.203124 0-13.203124 5.097656-14.703124 12l-21.597657 108h263.398438zm0 0" fill="#3e5959"/><path d="m356.699219 301h-131.699219v-120h95.398438c7.203124 0 13.203124 5.097656 14.703124 12zm0 0" fill="#384949"/><path d="m330 286c0 8.398438-6.597656 15-15 15s-15-6.601562-15-15c0-16.5-13.5-30-30-30s-30 13.5-30 30c0 8.398438-6.597656 15-15 15s-15-6.601562-15-15c0-15 5.398438-28.800781 15-39.300781 10.800781-12.601563 27-20.699219 45-20.699219 33 0 60 27 60 60zm0 0" fill="#a8d3d8"/><path d="m330 286c0 8.398438-6.597656 15-15 15s-15-6.601562-15-15c0-16.5-13.5-30-30-30s-30 13.5-30 30c0 8.398438-6.597656 15-15 15v-54.300781c10.800781-12.601563 27-20.699219 45-20.699219 33 0 60 27 60 60zm0 0" fill="#8ebac5"/><path d="m375 271h-300c-41.398438 0-75 33.601562-75 75v60c0 24.898438 20.097656 45 45 45h360c24.902344 0 45-20.101562 45-45v-60c0-41.398438-33.601562-75-75-75zm0 0" fill="#ec5569"/><path d="m450 346v60c0 24.898438-20.097656 45-45 45h-180v-180h150c41.398438 0 75 33.601562 75 75zm0 0" fill="#e63950"/><path d="m315.015625 391c-5.507813 0-10.796875-3.03125-13.433594-8.289062-3.707031-7.414063-.703125-16.421876 6.707031-20.128907l60-30c7.429688-3.707031 16.40625-.71875 20.128907 6.707031 3.707031 7.414063.703125 16.421876-6.707031 20.128907l-60 30c-2.15625 1.070312-4.441407 1.582031-6.695313 1.582031zm0 0" fill="#fdbf00"/><path d="m134.984375 391c-2.253906 0-4.539063-.511719-6.695313-1.582031l-60-30c-7.410156-3.707031-10.414062-12.714844-6.707031-20.128907 3.707031-7.425781 12.714844-10.414062 20.128907-6.707031l60 30c7.410156 3.707031 10.414062 12.714844 6.707031 20.128907-2.636719 5.257812-7.925781 8.289062-13.433594 8.289062zm0 0" fill="#ffd400"/><path d="m270 376c0 8.398438-6.597656 15-15 15h-60c-8.402344 0-15-6.601562-15-15 0-8.402344 6.597656-15 15-15h60c8.402344 0 15 6.597656 15 15zm0 0" fill="#4a696f"/><path d="m465 61c-24.902344 0-45-21.097656-45-46 0-8.402344-6.597656-15-15-15s-15 6.597656-15 15c0 24.902344-20.097656 46-45 46-8.402344 0-15 6.597656-15 15s6.597656 15 15 15c24.902344 0 45 20.097656 45 45 0 8.402344 6.597656 15 15 15s15-6.597656 15-15c0-24.902344 20.097656-45 45-45 8.402344 0 15-6.597656 15-15s-6.597656-15-15-15zm0 0" fill="#ffd400"/><path d="m480 76c0 8.402344-6.597656 15-15 15-24.902344 0-45 20.097656-45 45 0 8.402344-6.597656 15-15 15v-151c8.402344 0 15 6.597656 15 15 0 24.902344 20.097656 46 45 46 8.402344 0 15 6.597656 15 15zm0 0" fill="#fdbf00"/><path d="m270 376c0 8.398438-6.597656 15-15 15h-30v-30h30c8.402344 0 15 6.597656 15 15zm0 0" fill="#3e5959"/><path d="m165 151c-24.902344 0-45-20.097656-45-45 0-8.402344-6.597656-15-15-15s-15 6.597656-15 15c0 24.902344-20.097656 45-45 45-8.402344 0-15 6.597656-15 15s6.597656 15 15 15c24.902344 0 45 20.097656 45 45 0 8.402344 6.597656 15 15 15s15-6.597656 15-15c0-24.902344 20.097656-45 45-45 8.402344 0 15-6.597656 15-15s-6.597656-15-15-15zm0 0" fill="#ffd400"/><path d="m180 166c0 8.402344-6.597656 15-15 15-24.902344 0-45 20.097656-45 45 0 8.402344-6.597656 15-15 15v-150c8.402344 0 15 6.597656 15 15 0 24.902344 20.097656 45 45 45 8.402344 0 15 6.597656 15 15zm0 0" fill="#fdbf00"/></svg>